<svg xmlns="http://www.w3.org/2000/svg" viewBox="0 0 210 48" width="420" height="96">
  <defs><style>@import url('https://fonts.googleapis.com/css2?family=Inter:wght@600&amp;display=swap');</style></defs>
  <g transform="translate(0, 4) scale(0.06666666666666667) translate(-388, -84)"> <g fill="#fffffe">
  <path d="M738 610.8 c15.1 -12.9 43.5 -37.3 63 -54.1 l35.5 -30.7 1.2 -3.7 c0.6 -2.1 9.3 -32.6 19.3 -67.8 9.9 -35.2 18.5 -65.2 19 -66.7 l0.8 -2.7 -16.5 -29.3 c-9.1 -16.1 -20.8 -36.9 -26.1 -46.3 -5.2 -9.3 -10.5 -18.8 -11.8 -20.9 l-2.3 -4 -23.8 24 c-13.2 13.1 -40.5 41 -60.9 61.9 l-36.9 38 19 0.5 19 0.5 0 58.5 0 58.5 -10.3 38 c-11.3 41.7 -19.2 71.4 -19.2 72.3 0 0.3 0.8 -0.2 1.8 -1 0.9 -0.8 14.1 -12 29.2 -25z m-68 -44.2 c10.4 -22 19 -40.3 19 -40.8 l0 -0.8 -35 0 -35 0 0 -57.7 0 -57.8 26.2 -19 c14.4 -10.4 30.2 -21.9 35.2 -25.5 31.6 -22.8 95.8 -69.3 97.5 -70.6 0.4 -0.3 -3.2 -12 -34.9 -113.9 -11.2 -35.7 -20.6 -65.4 -21 -65.8 l-0.8 -0.9 -33.7 36.1 -33.7 36 -6.7 13.8 c-3.6 7.6 -16.9 34.4 -29.6 59.6 l-23 45.7 -3.5 0 -3.5 0 -2.3 -8.2 c-1.2 -4.6 -4.6 -16.3 -7.4 -26.1 l-5.1 -17.9 -1.3 3.4 c-0.7 1.8 -3.8 10.1 -6.8 18.3 -3 8.3 -16.8 45.6 -30.6 83 -13.8 37.4 -27.2 73.8 -29.7 80.8 l-4.6 12.9 9 9.1 c4.9 5.1 22 22.7 37.9 39.2 84.5 87.7 103.7 107.5 104 107.2 0.2 -0.2 8.9 -18.2 19.4 -40.1z"/>
 </g>
 <g fill="#67288c">
  <path d="M705.5 627.8 c2.9 -11.2 10.3 -39.2 16.5 -62.3 l11.3 -42 0.5 -5.4 0.4 -5.4 3.7 -6.1 c2.1 -3.4 11.3 -19.1 20.5 -34.9 l16.8 -28.8 2.3 -8.7 c1.3 -4.8 10.3 -40.4 20.1 -79.2 l17.7 -70.5 2 -2.3 2 -2.2 1.6 0 1.6 0 3.4 6.3 c1.9 3.4 7.3 13.2 12.1 21.7 4.9 8.5 16.3 28.8 25.4 44.9 l16.6 29.5 0 2.5 c0 1.5 -0.7 4.7 -1.5 7.3 l-1.4 4.7 -8.7 12.3 c-4.8 6.8 -15.4 21.5 -23.5 32.8 -8 11.3 -20.7 29.1 -28.1 39.6 -15 21.1 -86.1 127 -98.2 146 l-7.6 12.1 -4.9 4.1 c-2.7 2.3 -5.2 4.2 -5.4 4.2 -0.3 0 1.9 -9.1 4.8 -20.2z"/>
  <path d="M496 452.2 c0 -2.9 17.4 -50.7 61.8 -170.2 4.4 -11.8 9.3 -25.2 10.8 -29.8 l2.9 -8.2 1.4 0.2 1.4 0.3 8.1 28.7 c4.4 15.8 8.3 28.8 8.6 28.8 0.5 0 42.3 -82.8 53.1 -105.3 l6.6 -13.7 27.3 -29.3 c32.7 -35.1 44 -46.7 45.1 -46.7 l0.9 0 0.6 2.7 0.7 2.6 -1.6 6.6 c-1.7 6.6 -13.4 48.2 -31 110.1 -5.3 18.4 -12.1 42.4 -15.1 53.3 l-5.6 19.8 -17.6 42.2 c-9.7 23.2 -19.7 47.2 -22.3 53.3 l-4.6 11.2 -2.7 1.8 -2.8 1.9 0 2.1 0 2.1 -22.7 7.1 c-12.6 3.8 -39 12.1 -58.8 18.3 l-36 11.2 -4.2 0.5 -4.3 0.5 0 -2.1z"/>
 </g>
 <g fill="#451362">
  <path d="M700 648 c0 -0.5 1.5 -2.7 3.3 -4.7 1.8 -2.1 4.6 -6 6.1 -8.7 3.2 -5.4 9.3 -12.6 10.8 -12.6 0.6 0 2.3 -1.1 4 -2.5 l3 -2.5 4.5 0 4.5 0 -0.4 0.8 c-0.1 0.5 -8.3 7.7 -18 16 l-17.8 15.2 0 -1z"/>
  <path d="M686.2 531 l0.5 -5 -33.6 0 -33.7 0 -1 -0.9 c-0.9 -0.9 -15.1 -8.9 -69.9 -39.4 -14.8 -8.2 -27.9 -15.6 -29 -16.3 -1.1 -0.8 -2.3 -1.4 -2.7 -1.4 l-0.8 0 0 2.7 0 2.8 -10 -10 -10 -10 0 -1.5 0 -1.5 2.8 -0.1 2.7 -0.1 36 -11.2 c19.8 -6.2 46.7 -14.6 59.7 -18.7 13.1 -4.1 24 -7.4 24.3 -7.4 l0.5 0 0 54.5 0 54.5 36.5 0 c20.1 0 36.5 0.2 36.5 0.4 0 0.2 -1.3 3.4 -3 7 l-2.9 6.6 -1.7 0 -1.7 0 0.5 -5z"/>
  <path d="M831 532.9 l0 -3.3 2.2 -2.3 2.2 -2.4 2.7 -10.2 c5.9 -22.6 9.8 -36.4 10.8 -38.7 0.6 -1.4 3.3 -10.6 6 -20.5 2.8 -9.9 6.6 -23.6 8.6 -30.5 2 -6.9 4.6 -15.6 5.6 -19.5 l2 -7 3.2 -4.7 c1.8 -2.7 3.6 -4.8 4.1 -4.8 l0.8 0 -0.7 2.8 c-0.3 1.5 -8.7 31.1 -18.5 65.7 -9.9 34.7 -18.4 64.9 -19 67.1 l-1 4.2 -4.5 3.7 -4.5 3.6 0 -3.2z"/>
  <path d="M733.8 467.4 l-0.3 -54.9 -21.8 0 -21.7 0 0 -0.7 c0 -0.4 11.4 -12.4 25.3 -26.6 13.8 -14.1 40.2 -41.2 58.6 -60 18.3 -18.8 35.8 -36.3 38.8 -38.9 l5.3 -4.6 0.7 0.7 0.7 0.6 -5.2 20.8 c-2.8 11.4 -12 47.9 -20.4 81.2 l-15.3 60.5 -20 34 c-10.9 18.7 -20.9 36 -22.2 38.4 l-2.3 4.4 -0.2 -54.9z"/>
  <path d="M622.3 410.8 c0.3 -0.7 7.1 -17 15.2 -36.3 8.1 -19.2 18.5 -44.1 23.2 -55.3 l8.4 -20.4 5.4 -19.1 c3 -10.6 7.2 -25.9 9.5 -34.2 2.3 -8.2 7.7 -27.1 12 -42 12.3 -42.3 26.1 -92 26.3 -94.4 0.1 -1.1 0.4 -2.1 0.8 -2.1 0.9 0 0.3 -1.8 28.4 88.5 13 41.8 25.2 80.9 27.1 86.9 1.9 6 3.4 11.7 3.4 12.6 l0 1.6 -11.7 8.5 c-26.3 19 -82.2 59.5 -88.3 63.9 -3.6 2.5 -18.3 13.3 -32.8 23.8 -14.5 10.6 -26.6 19.2 -26.9 19.2 l-0.5 0 0.5 -1.2z"/>
 </g>
 <g fill="#4f1770">
  <path d="M708.6 636 c2.6 -4.9 21.2 -33.3 54.2 -82.5 l37.6 -56 23.5 -33 c20.4 -28.7 38.1 -53.6 48.5 -68.3 l3.1 -4.3 0.3 1 c0.2 0.6 -0.8 5.4 -2.3 10.7 l-2.6 9.6 0.5 1.5 0.6 1.4 -1.2 -0.7 -1.1 -0.7 0.5 2.1 0.6 2.2 -0.8 -0.5 -0.7 -0.5 -2.3 7.9 -2.2 7.9 0.7 1.3 0.8 1.2 -1 -0.6 -1.1 -0.7 -0.6 2.8 c-0.8 3.6 -10.8 38.4 -14.1 49.2 l-2.7 8.5 -0.1 3.6 -0.2 3.7 -0.6 -0.4 -0.7 -0.4 -2.1 8 c-1.2 4.4 -2.7 10.2 -3.4 12.9 l-1.1 4.9 -4.6 5 -4.5 5 -47.7 41.1 -47.7 41.1 -2 0 -1.9 0 -3 2.5 c-1.7 1.4 -3.5 2.5 -4 2.5 -0.6 0 -3.2 2.4 -5.7 5.3 l-4.7 5.2 -0.5 -1.4 -0.6 -1.4 -1.9 2.4 -2 2.4 0.8 -1.5z"/>
  <path d="M611.9 573.4 c-21.7 -22.5 -52.8 -54.7 -69.1 -71.6 l-29.8 -30.8 0 -1.4 0 -1.5 -4.9 -4.1 -4.9 -4.1 -0.5 -2 c-0.3 -1 -0.3 -1.9 -0.1 -1.9 0.9 0 11.1 5.4 20.9 11 5.5 3.2 20.1 11.4 32.5 18.2 41.7 23.2 64.5 36 65.6 36.9 l1.1 0.9 34.4 0.2 34.4 0.3 -0.3 2.5 c-0.1 1.4 -0.4 3.3 -0.5 4.2 l-0.1 1.7 -1 -0.6 -0.9 -0.6 0.6 1.6 0.6 1.7 -17.3 36.2 c-9.5 20 -18.2 38 -19.3 40.1 l-1.9 3.9 -39.5 -40.8z"/>
 </g>
</g>
  <text x="50" y="34" font-family="'Inter', 'Segoe UI', system-ui, -apple-system, sans-serif" font-weight="600" font-size="28" fill="#1a1a2e">Fictionry</text>
</svg>